<svg class="css3animate" version="1.1" id="Layer_1" xmlns="http://www.w3.org/2000/svg" xmlns:xlink="http://www.w3.org/1999/xlink" x="0px" y="0px" width="92px" height="41.204px" viewBox="0 0 92 41.204" enable-background="new 0 0 92 41.204" xml:space="preserve">
    <path d="M3.12,22.757H83.8L70.166,36.619c-0.818,0.833-0.808,2.178,0.025,2.997c0.806,0.794,2.202,0.782,2.998-0.024l17.018-17.309 C90.711,21.876,91,21.276,91,20.637c0-0.034-0.003-0.074-0.008-0.107c-0.01-0.192-0.047-0.385-0.095-0.52 c-0.008-0.048-0.036-0.151-0.054-0.195c-0.045-0.114-0.101-0.182-0.091-0.158c-0.063-0.12-0.135-0.232-0.19-0.298 c-0.031-0.058-0.124-0.19-0.17-0.237L73.189,1.632C72.788,1.225,72.252,1,71.679,1c-0.56,0-1.088,0.217-1.487,0.608 c-0.832,0.819-0.844,2.165-0.024,2.999l13.683,13.91H3.12c-1.169,0-2.12,0.951-2.12,2.12C1,21.806,1.951,22.757,3.12,22.757z"/>
</svg>