<svg class="css3animate" version="1.1" id="Layer_1" xmlns="http://www.w3.org/2000/svg" xmlns:xlink="http://www.w3.org/1999/xlink" x="0px" y="0px" width="92px" height="41.204px" viewBox="0 0 92 41.204" enable-background="new 0 0 92 41.204" xml:space="preserve">
    <path d="M88.88,18.446H8.201L21.833,4.585c0.819-0.833,0.808-2.178-0.024-2.997c-0.806-0.794-2.203-0.782-2.999,0.024L1.793,18.92 C1.289,19.327,1,19.927,1,20.566c0,0.034,0.003,0.074,0.008,0.107c0.01,0.192,0.047,0.385,0.095,0.52 c0.008,0.048,0.036,0.151,0.054,0.195c0.044,0.114,0.1,0.182,0.091,0.158c0.062,0.12,0.135,0.232,0.19,0.298 c0.031,0.058,0.124,0.19,0.17,0.237l17.203,17.489c0.401,0.407,0.938,0.633,1.511,0.633c0.56,0,1.088-0.217,1.487-0.608 c0.833-0.819,0.844-2.165,0.025-2.999L8.151,22.686H88.88c1.169,0,2.12-0.951,2.12-2.12C91,19.397,90.049,18.446,88.88,18.446z"/>
</svg>