<svg width="101" height="60" viewBox="0 0 101 60" fill="none" xmlns="http://www.w3.org/2000/svg">
<linearGradient id="light-waves-1">
    <stop offset="0%" stop-color="var(--color-stop-1)" />
    <stop offset="100%" stop-color="var(--color-stop-2)" />
</linearGradient>
<linearGradient id="light-waves-2">
    <stop offset="0%" stop-color="var(--color-stop-1)" />
    <stop offset="100%" stop-color="var(--color-stop-2)" />
</linearGradient>
<linearGradient id="dark-waves-1">
    <stop offset="0%" stop-color="var(--color-stop-1)" />
    <stop offset="100%" stop-color="var(--color-stop-2)" />
</linearGradient>
<linearGradient id="dark-waves-2">
    <stop offset="0%" stop-color="var(--color-stop-1)" />
    <stop offset="100%" stop-color="var(--color-stop-2)" />
</linearGradient>
<linearGradient id="light-waves-testimonial">
    <stop offset="0%" stop-color="var(--color-stop-1)" />
    <stop offset="100%" stop-color="var(--color-stop-2)" />
</linearGradient>
<linearGradient id="dark-waves-testimonial">
    <stop offset="0%" stop-color="var(--color-stop-1)" />
    <stop offset="100%" stop-color="var(--color-stop-2)" />
</linearGradient>
<path d="M0.22663 9.60412L0.453484 9.84836L0.454953 9.847L0.460071 9.84226L0.480995 9.82299C0.499643 9.80586 0.527619 9.78025 0.564517 9.74673C0.638315 9.67968 0.747788 9.58099 0.889679 9.45519C1.17348 9.20355 1.58685 8.84353 2.10372 8.41126C3.13782 7.54642 4.58443 6.39391 6.23531 5.24211C7.8872 4.0896 9.73737 2.9422 11.579 2.08404C13.4257 1.22357 15.237 0.666671 16.8184 0.666671C19.9679 0.666671 22.3668 2.87239 24.8874 5.213L24.937 5.25905C27.3935 7.54017 29.975 9.93746 33.4101 9.93746C36.8453 9.93746 39.4268 7.54017 41.8832 5.25905L41.9328 5.213C44.4535 2.87239 46.8523 0.666671 50.0019 0.666671C53.1514 0.666671 55.5503 2.87239 58.0709 5.213L58.1206 5.25906C60.577 7.54018 63.1585 9.93746 66.5936 9.93746C70.0288 9.93746 72.6103 7.54018 75.0667 5.25906L75.1163 5.213C77.637 2.87239 80.0358 0.666671 83.1854 0.666671C84.7668 0.666671 86.5781 1.22357 88.4247 2.08404C90.2664 2.9422 92.1166 4.0896 93.7685 5.24211C95.4194 6.39391 96.866 7.54642 97.9001 8.41126C98.4169 8.84353 98.8303 9.20355 99.1141 9.45519C99.256 9.58099 99.3655 9.67968 99.4393 9.74673C99.4762 9.78025 99.5041 9.80586 99.5228 9.82299L99.5437 9.84226L99.55 9.84811L99.7772 9.60412L99.9828 9.38256C100.004 9.35977 100.004 9.35968 100.004 9.35968L100.002 9.35788L99.9961 9.35255L99.9738 9.33207C99.9543 9.31412 99.9254 9.28767 99.8876 9.25329C99.8119 9.18454 99.7004 9.08405 99.5564 8.95636C99.2684 8.70099 98.8501 8.33673 98.3278 7.89986C97.2834 7.02643 95.821 5.86125 94.1499 4.69535C92.4799 3.53016 90.5951 2.35986 88.7063 1.47975C86.8225 0.601946 84.9079 0 83.1854 0C79.7503 0 77.1687 2.39729 74.7123 4.67842L74.6627 4.72446C72.142 7.06507 69.7432 9.27079 66.5936 9.27079C63.4441 9.27079 61.0452 7.06507 58.5246 4.72446L58.475 4.67842C56.0186 2.39729 53.437 0 50.0019 0C46.5668 0 43.9852 2.39729 41.5288 4.67842L41.4792 4.72446C38.9585 7.06507 36.5597 9.27079 33.4101 9.27079C30.2606 9.27079 27.8617 7.06507 25.3411 4.72446L25.2915 4.67841C22.835 2.39729 20.2535 0 16.8184 0C15.0959 0 13.1813 0.601946 11.2975 1.47975C9.4087 2.35986 7.52392 3.53016 5.85385 4.69535C4.18277 5.86125 2.7204 7.02643 1.67602 7.89986C1.15365 8.33673 0.735399 8.70099 0.44739 8.95636C0.303375 9.08405 0.191897 9.18454 0.116219 9.25329C0.0783788 9.28767 0.0494866 9.31412 0.0299502 9.33207L0.00771238 9.35255L0.000426383 9.35929C0.000426383 9.35929 -0.000187855 9.35986 0.22663 9.60412Z" />
<path d="M0.22663 26.2919L0.453484 26.5361L0.454953 26.5347L0.460071 26.53L0.480995 26.5107C0.499643 26.4936 0.527619 26.468 0.564517 26.4345C0.638315 26.3674 0.747788 26.2687 0.889679 26.1429C1.17348 25.8913 1.58685 25.5313 2.10372 25.099C3.13782 24.2342 4.58443 23.0816 6.23531 21.9298C7.8872 20.7773 9.73737 19.6299 11.579 18.7718C13.4257 17.9113 15.237 17.3544 16.8184 17.3544C19.9679 17.3544 22.3668 19.5601 24.8874 21.9007L24.937 21.9468C27.3935 24.2279 29.975 26.6252 33.4101 26.6252C36.8453 26.6252 39.4268 24.2279 41.8832 21.9468L41.9328 21.9007C44.4535 19.5601 46.8523 17.3544 50.0019 17.3544C53.1514 17.3544 55.5503 19.5601 58.0709 21.9007L58.1206 21.9468C60.577 24.2279 63.1585 26.6252 66.5936 26.6252C70.0288 26.6252 72.6103 24.2279 75.0667 21.9468L75.1163 21.9007C77.637 19.5601 80.0358 17.3544 83.1854 17.3544C84.7668 17.3544 86.5781 17.9113 88.4247 18.7718C90.2664 19.6299 92.1166 20.7773 93.7685 21.9298C95.4194 23.0816 96.866 24.2342 97.9001 25.099C98.4169 25.5313 98.8303 25.8913 99.1141 26.1429C99.256 26.2687 99.3655 26.3674 99.4393 26.4345C99.4762 26.468 99.5041 26.4936 99.5228 26.5107L99.5437 26.53L99.55 26.5358L99.7772 26.2919C100.004 26.0476 100.004 26.0474 100.004 26.0474L100.002 26.0456L99.9961 26.0403L99.9738 26.0198C99.9543 26.0018 99.9254 25.9754 99.8876 25.941C99.8119 25.8723 99.7004 25.7718 99.5564 25.6441C99.2684 25.3887 98.8501 25.0245 98.3278 24.5876C97.2834 23.7142 95.821 22.549 94.1499 21.3831C92.4799 20.2179 90.5951 19.0476 88.7063 18.1675C86.8225 17.2897 84.9079 16.6877 83.1854 16.6877C79.7503 16.6877 77.1687 19.085 74.7123 21.3662L74.6627 21.4122C72.142 23.7528 69.7432 25.9585 66.5936 25.9585C63.4441 25.9585 61.0452 23.7528 58.5246 21.4122L58.475 21.3662C56.0186 19.085 53.437 16.6877 50.0019 16.6877C46.5668 16.6877 43.9852 19.085 41.5288 21.3662L41.4792 21.4122C38.9585 23.7528 36.5597 25.9585 33.4101 25.9585C30.2606 25.9585 27.8617 23.7528 25.3411 21.4122L25.2915 21.3661C22.835 19.085 20.2535 16.6877 16.8184 16.6877C15.0959 16.6877 13.1813 17.2897 11.2975 18.1675C9.4087 19.0476 7.52392 20.2179 5.85385 21.3831C4.18277 22.549 2.7204 23.7142 1.67602 24.5876C1.15365 25.0245 0.735399 25.3887 0.44739 25.6441C0.303375 25.7718 0.191897 25.8723 0.116219 25.941C0.0783788 25.9754 0.0494866 26.0018 0.0299502 26.0198L0.00771238 26.0403L0.001951 26.0456L0.000426383 26.047C0.000426383 26.047 -0.000187855 26.0476 0.22663 26.2919Z"/>
<path d="M0.453484 43.2237L0.22663 42.9795C-0.000187855 42.7352 5.15431e-06 42.735 5.15431e-06 42.735L0.001951 42.7332L0.00771238 42.7279L0.0299502 42.7074C0.0494866 42.6895 0.0783788 42.663 0.116219 42.6286C0.191897 42.5599 0.303375 42.4594 0.44739 42.3317C0.735399 42.0763 1.15365 41.7121 1.67602 41.2752C2.7204 40.4018 4.18277 39.2366 5.85385 38.0707C7.52392 36.9055 9.4087 35.7352 11.2975 34.8551C13.1813 33.9773 15.0959 33.3753 16.8184 33.3753C20.2535 33.3753 22.835 35.7726 25.2915 38.0538L25.3411 38.0998C27.8617 40.4404 30.2606 42.6461 33.4101 42.6461C36.5597 42.6461 38.9585 40.4404 41.4792 38.0998L41.5288 38.0538C43.9852 35.7726 46.5668 33.3753 50.0019 33.3753C53.437 33.3753 56.0186 35.7726 58.475 38.0538L58.5246 38.0998C61.0452 40.4404 63.4441 42.6461 66.5936 42.6461C69.7432 42.6461 72.142 40.4404 74.6627 38.0998L74.7123 38.0538C77.1687 35.7726 79.7503 33.3753 83.1854 33.3753C84.9079 33.3753 86.8225 33.9773 88.7063 34.8551C90.5951 35.7352 92.4799 36.9055 94.1499 38.0707C95.821 39.2366 97.2834 40.4018 98.3278 41.2752C98.8501 41.7121 99.2684 42.0763 99.5564 42.3317C99.7004 42.4594 99.8119 42.5599 99.8876 42.6286C99.9254 42.663 99.9543 42.6895 99.9738 42.7074L99.9961 42.7279L100.003 42.7346C100.003 42.7346 100.004 42.7352 99.7772 42.9795L99.5503 43.2237L99.5488 43.2223L99.5437 43.2176L99.5228 43.1983L99.5091 43.1858L99.482 43.161C99.4695 43.1495 99.4552 43.1365 99.4393 43.1221C99.3655 43.055 99.256 42.9563 99.1141 42.8305C98.8303 42.5789 98.4169 42.2189 97.9001 41.7866C96.866 40.9218 95.4194 39.7693 93.7685 38.6174C92.1166 37.4649 90.2664 36.3175 88.4247 35.4594C86.5781 34.5989 84.7668 34.042 83.1854 34.042C80.0358 34.042 77.637 36.2477 75.1163 38.5883L75.0667 38.6344C72.6103 40.9155 70.0288 43.3128 66.5936 43.3128C63.1585 43.3128 60.577 40.9155 58.1206 38.6344L58.0709 38.5883C55.5503 36.2477 53.1514 34.042 50.0019 34.042C46.8523 34.042 44.4535 36.2477 41.9328 38.5883L41.8832 38.6344C39.4268 40.9155 36.8453 43.3128 33.4101 43.3128C29.975 43.3128 27.3935 40.9155 24.937 38.6344L24.8874 38.5883C22.3668 36.2477 19.9679 34.042 16.8184 34.042C15.237 34.042 13.4257 34.5989 11.579 35.4594C9.73737 36.3175 7.8872 37.4649 6.23531 38.6174C4.58443 39.7693 3.13782 40.9218 2.10372 41.7866C1.58685 42.2189 1.17348 42.5789 0.889679 42.8305C0.747788 42.9563 0.638315 43.055 0.564517 43.1221C0.527619 43.1556 0.499643 43.1812 0.480995 43.1983L0.460071 43.2176L0.453484 43.2237Z" />
<path d="M0.22663 59.6667L0.453484 59.9109L0.460071 59.9048L0.480995 59.8855C0.499643 59.8684 0.527619 59.8428 0.564517 59.8093C0.638315 59.7422 0.747788 59.6435 0.889679 59.5177C1.17348 59.2661 1.58685 58.9061 2.10372 58.4738C3.13782 57.609 4.58443 56.4565 6.23531 55.3046C7.8872 54.1521 9.73737 53.0047 11.579 52.1466C13.4257 51.2861 15.237 50.7292 16.8184 50.7292C19.9679 50.7292 22.3668 52.9349 24.8874 55.2755L24.937 55.3216C27.3935 57.6027 29.975 60 33.4101 60C36.8453 60 39.4268 57.6027 41.8832 55.3216L41.9328 55.2755C44.4535 52.9349 46.8523 50.7292 50.0019 50.7292C53.1514 50.7292 55.5503 52.9349 58.0709 55.2755L58.1206 55.3216C60.577 57.6027 63.1585 60 66.5936 60C70.0288 60 72.6103 57.6027 75.0667 55.3216L75.1163 55.2755C77.637 52.9349 80.0358 50.7292 83.1854 50.7292C84.7668 50.7292 86.5781 51.2861 88.4247 52.1466C90.2664 53.0047 92.1166 54.1521 93.7685 55.3046C95.4194 56.4565 96.866 57.609 97.9001 58.4738C98.4169 58.9061 98.8303 59.2661 99.1141 59.5177C99.256 59.6435 99.3655 59.7422 99.4393 59.8093C99.4762 59.8428 99.5041 59.8684 99.5228 59.8855L99.5437 59.9048L99.5488 59.9095L99.55 59.9107L99.7772 59.6667C100.004 59.4224 100.004 59.4222 100.004 59.4222L100.002 59.4204L99.9961 59.4151L99.9738 59.3946C99.9543 59.3767 99.9254 59.3502 99.8876 59.3158C99.8119 59.2471 99.7004 59.1466 99.5564 59.0189C99.2684 58.7635 98.8501 58.3993 98.3278 57.9624C97.2834 57.089 95.821 55.9238 94.1499 54.7579C92.4799 53.5927 90.5951 52.4224 88.7063 51.5423C86.8225 50.6645 84.9079 50.0625 83.1854 50.0625C79.7503 50.0625 77.1687 52.4598 74.7123 54.741L74.6627 54.787C72.142 57.1276 69.7432 59.3333 66.5936 59.3333C63.4441 59.3333 61.0452 57.1276 58.5246 54.787L58.475 54.741C56.0186 52.4598 53.437 50.0625 50.0019 50.0625C46.5668 50.0625 43.9852 52.4598 41.5288 54.741L41.4792 54.787C38.9585 57.1276 36.5597 59.3333 33.4101 59.3333C30.2606 59.3333 27.8617 57.1276 25.3411 54.787L25.2915 54.741C22.835 52.4598 20.2535 50.0625 16.8184 50.0625C15.0959 50.0625 13.1813 50.6645 11.2975 51.5423C9.4087 52.4224 7.52392 53.5927 5.85385 54.7579C4.18277 55.9238 2.7204 57.089 1.67602 57.9624C1.15365 58.3993 0.735399 58.7635 0.44739 59.0189C0.303375 59.1466 0.191897 59.2471 0.116219 59.3158C0.0783788 59.3502 0.0494866 59.3767 0.0299502 59.3946L0.00771238 59.4151L0.001951 59.4204L0.000426383 59.4218C0.000426383 59.4218 -0.000187855 59.4224 0.22663 59.6667Z" />
</svg>
